<mxfile host="app.diagrams.net" modified="2023-11-19T14:26:04.956Z" agent="Mozilla/5.0 (Windows NT 10.0; Win64; x64) AppleWebKit/537.36 (KHTML, like Gecko) Chrome/119.0.0.0 Safari/537.36 Edg/119.0.0.0" etag="4-hVNWPV26nCTCJnj0Dl" version="21.8.0" type="github">
  <diagram id="prtHgNgQTEPvFCAcTncT" name="Page-1">
    <mxGraphModel dx="1392" dy="766" grid="1" gridSize="10" guides="1" tooltips="1" connect="1" arrows="1" fold="1" page="1" pageScale="1" pageWidth="827" pageHeight="1169" math="0" shadow="0">
      <root>
        <mxCell id="0" />
        <mxCell id="1" parent="0" />
        <mxCell id="L1f7tH7ytzm10aezhSUD-2" style="edgeStyle=orthogonalEdgeStyle;rounded=0;orthogonalLoop=1;jettySize=auto;html=1;entryX=0;entryY=0.5;entryDx=0;entryDy=0;" edge="1" parent="1" source="L1f7tH7ytzm10aezhSUD-1" target="L1f7tH7ytzm10aezhSUD-5">
          <mxGeometry relative="1" as="geometry">
            <mxPoint x="210" y="210.0000000000001" as="targetPoint" />
          </mxGeometry>
        </mxCell>
        <mxCell id="L1f7tH7ytzm10aezhSUD-8" value="数据" style="edgeLabel;html=1;align=center;verticalAlign=middle;resizable=0;points=[];" vertex="1" connectable="0" parent="L1f7tH7ytzm10aezhSUD-2">
          <mxGeometry x="-0.082" y="3" relative="1" as="geometry">
            <mxPoint as="offset" />
          </mxGeometry>
        </mxCell>
        <mxCell id="L1f7tH7ytzm10aezhSUD-1" value="" style="rounded=0;whiteSpace=wrap;html=1;" vertex="1" parent="1">
          <mxGeometry y="120" width="80" height="200" as="geometry" />
        </mxCell>
        <mxCell id="L1f7tH7ytzm10aezhSUD-11" style="edgeStyle=orthogonalEdgeStyle;rounded=0;orthogonalLoop=1;jettySize=auto;html=1;" edge="1" parent="1" source="L1f7tH7ytzm10aezhSUD-5" target="L1f7tH7ytzm10aezhSUD-12">
          <mxGeometry relative="1" as="geometry">
            <mxPoint x="420.0000000000002" y="220.0000000000001" as="targetPoint" />
            <Array as="points">
              <mxPoint x="370" y="190" />
              <mxPoint x="370" y="190" />
            </Array>
          </mxGeometry>
        </mxCell>
        <mxCell id="L1f7tH7ytzm10aezhSUD-16" value="数据上传" style="edgeLabel;html=1;align=center;verticalAlign=middle;resizable=0;points=[];" vertex="1" connectable="0" parent="L1f7tH7ytzm10aezhSUD-11">
          <mxGeometry x="-0.0752" relative="1" as="geometry">
            <mxPoint as="offset" />
          </mxGeometry>
        </mxCell>
        <mxCell id="L1f7tH7ytzm10aezhSUD-5" value="" style="rounded=0;whiteSpace=wrap;html=1;" vertex="1" parent="1">
          <mxGeometry x="150" y="120" width="150" height="200" as="geometry" />
        </mxCell>
        <mxCell id="L1f7tH7ytzm10aezhSUD-9" value="边缘端" style="rounded=1;whiteSpace=wrap;html=1;" vertex="1" parent="1">
          <mxGeometry x="150" y="60" width="150" height="60" as="geometry" />
        </mxCell>
        <mxCell id="L1f7tH7ytzm10aezhSUD-10" value="电池" style="rounded=1;whiteSpace=wrap;html=1;" vertex="1" parent="1">
          <mxGeometry y="60" width="80" height="60" as="geometry" />
        </mxCell>
        <mxCell id="L1f7tH7ytzm10aezhSUD-15" style="edgeStyle=orthogonalEdgeStyle;rounded=0;orthogonalLoop=1;jettySize=auto;html=1;" edge="1" parent="1" source="L1f7tH7ytzm10aezhSUD-12" target="L1f7tH7ytzm10aezhSUD-5">
          <mxGeometry relative="1" as="geometry" />
        </mxCell>
        <mxCell id="L1f7tH7ytzm10aezhSUD-17" value="数据下发" style="edgeLabel;html=1;align=center;verticalAlign=middle;resizable=0;points=[];" vertex="1" connectable="0" parent="L1f7tH7ytzm10aezhSUD-15">
          <mxGeometry x="0.0358" relative="1" as="geometry">
            <mxPoint as="offset" />
          </mxGeometry>
        </mxCell>
        <mxCell id="L1f7tH7ytzm10aezhSUD-12" value="" style="rounded=0;whiteSpace=wrap;html=1;" vertex="1" parent="1">
          <mxGeometry x="410" y="120" width="340" height="200" as="geometry" />
        </mxCell>
        <mxCell id="L1f7tH7ytzm10aezhSUD-14" value="云端" style="rounded=1;whiteSpace=wrap;html=1;" vertex="1" parent="1">
          <mxGeometry x="410" y="60" width="340" height="60" as="geometry" />
        </mxCell>
        <mxCell id="L1f7tH7ytzm10aezhSUD-18" value="使用拓展卡尔曼进行soc估计" style="rounded=1;whiteSpace=wrap;html=1;" vertex="1" parent="1">
          <mxGeometry x="200" y="120" width="100" height="50" as="geometry" />
        </mxCell>
        <mxCell id="L1f7tH7ytzm10aezhSUD-19" value="使用机器学习模型估计SOH" style="rounded=1;whiteSpace=wrap;html=1;" vertex="1" parent="1">
          <mxGeometry x="620" y="120" width="130" height="50" as="geometry" />
        </mxCell>
        <mxCell id="L1f7tH7ytzm10aezhSUD-20" value="基础数据特征提取" style="rounded=1;whiteSpace=wrap;html=1;" vertex="1" parent="1">
          <mxGeometry x="410" y="120" width="60" height="50" as="geometry" />
        </mxCell>
        <mxCell id="L1f7tH7ytzm10aezhSUD-21" value="dQ/dV曲线相关特征提取" style="rounded=1;whiteSpace=wrap;html=1;" vertex="1" parent="1">
          <mxGeometry x="470" y="120" width="80" height="50" as="geometry" />
        </mxCell>
        <mxCell id="L1f7tH7ytzm10aezhSUD-22" value="阿尼乌斯公式特征提取" style="rounded=1;whiteSpace=wrap;html=1;" vertex="1" parent="1">
          <mxGeometry x="550" y="120" width="70" height="50" as="geometry" />
        </mxCell>
        <mxCell id="L1f7tH7ytzm10aezhSUD-23" value="数据处理" style="rounded=1;whiteSpace=wrap;html=1;" vertex="1" parent="1">
          <mxGeometry x="150" y="120" width="50" height="50" as="geometry" />
        </mxCell>
        <mxCell id="L1f7tH7ytzm10aezhSUD-24" value="" style="shape=waypoint;sketch=0;fillStyle=solid;size=6;pointerEvents=1;points=[];fillColor=none;resizable=0;rotatable=0;perimeter=centerPerimeter;snapToPoint=1;" vertex="1" parent="1">
          <mxGeometry x="150" y="180" width="20" height="20" as="geometry" />
        </mxCell>
        <mxCell id="L1f7tH7ytzm10aezhSUD-25" value="......" style="text;strokeColor=none;fillColor=none;align=left;verticalAlign=middle;spacingLeft=4;spacingRight=4;overflow=hidden;points=[[0,0.5],[1,0.5]];portConstraint=eastwest;rotatable=0;whiteSpace=wrap;html=1;" vertex="1" parent="1">
          <mxGeometry x="160" y="275" width="80" height="30" as="geometry" />
        </mxCell>
        <mxCell id="L1f7tH7ytzm10aezhSUD-26" value="电压" style="text;strokeColor=none;fillColor=none;align=left;verticalAlign=middle;spacingLeft=4;spacingRight=4;overflow=hidden;points=[[0,0.5],[1,0.5]];portConstraint=eastwest;rotatable=0;whiteSpace=wrap;html=1;" vertex="1" parent="1">
          <mxGeometry x="160" y="175" width="40" height="30" as="geometry" />
        </mxCell>
        <mxCell id="L1f7tH7ytzm10aezhSUD-27" value="电流" style="text;strokeColor=none;fillColor=none;align=left;verticalAlign=middle;spacingLeft=4;spacingRight=4;overflow=hidden;points=[[0,0.5],[1,0.5]];portConstraint=eastwest;rotatable=0;whiteSpace=wrap;html=1;" vertex="1" parent="1">
          <mxGeometry x="160" y="230" width="40" height="30" as="geometry" />
        </mxCell>
        <mxCell id="L1f7tH7ytzm10aezhSUD-29" value="" style="shape=waypoint;sketch=0;fillStyle=solid;size=6;pointerEvents=1;points=[];fillColor=none;resizable=0;rotatable=0;perimeter=centerPerimeter;snapToPoint=1;" vertex="1" parent="1">
          <mxGeometry x="150" y="235" width="20" height="20" as="geometry" />
        </mxCell>
        <mxCell id="L1f7tH7ytzm10aezhSUD-30" value="" style="shape=waypoint;sketch=0;fillStyle=solid;size=6;pointerEvents=1;points=[];fillColor=none;resizable=0;rotatable=0;perimeter=centerPerimeter;snapToPoint=1;" vertex="1" parent="1">
          <mxGeometry x="150" y="280" width="20" height="20" as="geometry" />
        </mxCell>
        <mxCell id="L1f7tH7ytzm10aezhSUD-32" value="" style="shape=cylinder3;whiteSpace=wrap;html=1;boundedLbl=1;backgroundOutline=1;size=15;" vertex="1" parent="1">
          <mxGeometry x="20" y="170" width="40" height="80" as="geometry" />
        </mxCell>
      </root>
    </mxGraphModel>
  </diagram>
</mxfile>
